<?xml version="1.0" standalone="no"?>
<!DOCTYPE svg PUBLIC "-//W3C//DTD SVG 20010904//EN"
 "http://www.w3.org/TR/2001/REC-SVG-20010904/DTD/svg10.dtd">
<svg version="1.0" xmlns="http://www.w3.org/2000/svg"
 width="600.000000pt" height="567.000000pt" viewBox="0 0 600.000000 567.000000"
 preserveAspectRatio="xMidYMid meet">

<g transform="translate(0.000000,567.000000) scale(0.100000,-0.100000)"
fill="#000000" stroke="none">
<path d="M860 5504 c0 -3 27 -113 61 -243 80 -313 140 -439 305 -642 68 -83
220 -230 304 -293 36 -27 68 -52 73 -56 4 -3 -32 -21 -80 -40 -199 -75 -383
-189 -500 -309 -110 -113 -334 -376 -323 -379 5 -2 125 33 267 77 142 44 294
90 338 101 102 26 205 37 205 21 0 -6 -12 -11 -27 -11 -16 0 -59 -9 -98 -19
-266 -69 -513 -239 -747 -511 -83 -96 -126 -159 -220 -322 -64 -111 -115 -204
-113 -206 6 -6 252 135 320 183 106 75 265 146 358 159 26 4 47 5 47 2 0 -3
-22 -17 -49 -30 -96 -49 -258 -165 -348 -251 -95 -88 -195 -212 -242 -297
l-26 -48 -138 0 c-124 0 -139 -2 -157 -20 -20 -20 -20 -31 -18 -1121 l3 -1102
25 -19 26 -19 194 95 c218 106 447 203 623 264 l117 42 0 -220 c0 -268 -9
-255 145 -210 251 73 596 146 870 184 919 127 1811 70 2704 -175 132 -36 146
-39 160 -24 13 13 17 52 21 230 l5 213 180 -68 c223 -84 374 -150 578 -252
147 -73 160 -78 185 -66 l27 13 3 1110 2 1110 -21 18 c-19 15 -51 17 -341 17
l-320 0 8 32 c4 18 10 62 13 97 l6 64 40 12 c140 41 273 175 330 330 14 37 41
73 107 140 67 68 99 109 128 167 44 88 85 252 76 303 -20 103 -126 145 -372
145 l-121 0 -109 66 c-220 133 -377 269 -444 385 -69 117 -164 181 -301 202
-81 12 -202 0 -292 -31 l-56 -19 -28 30 c-15 16 -55 50 -88 74 -33 25 -81 73
-107 108 -177 240 -685 487 -1333 649 -228 57 -423 93 -725 136 -157 22 -298
43 -315 46 -20 4 -27 3 -20 -4 30 -30 549 -316 655 -362 250 -106 616 -302
726 -388 l29 -23 -120 5 -120 6 25 -23 c14 -12 44 -37 65 -55 l40 -32 -35 5
c-324 46 -688 120 -865 174 -324 100 -639 290 -817 494 -93 106 -350 387 -354
387 -2 0 -4 -3 -4 -6z m1650 -445 c382 -84 741 -204 1008 -338 121 -61 293
-175 347 -230 l40 -42 -34 12 c-50 18 -156 6 -228 -26 l-62 -27 -28 33 c-110
133 -224 226 -371 302 -166 86 -481 215 -832 341 -40 14 -41 15 -10 10 19 -3
96 -19 170 -35z m-1150 -231 c346 -254 737 -383 1501 -493 245 -35 294 -46
336 -72 19 -13 23 -12 32 6 16 28 14 77 -4 111 -19 36 -19 36 95 14 101 -19
190 -51 190 -68 0 -40 -125 -156 -168 -156 -27 0 -5 -25 25 -28 44 -4 86 16
184 90 129 97 172 113 299 113 149 0 175 -14 365 -203 146 -145 238 -218 313
-249 20 -8 79 -40 130 -70 130 -77 242 -115 362 -121 60 -3 91 -1 85 5 -5 5
-41 31 -78 57 -99 70 -192 160 -227 222 -45 78 -97 117 -195 149 -70 23 -95
27 -142 21 -111 -12 -108 -13 -111 11 -3 19 4 23 54 33 84 18 219 9 270 -17
47 -25 95 -77 144 -158 66 -109 248 -258 488 -401 61 -37 112 -71 112 -76 0
-20 -63 -4 -144 36 l-87 44 -117 -19 c-64 -10 -173 -22 -242 -26 -117 -7 -125
-9 -128 -29 -4 -29 51 -98 123 -156 56 -46 139 -87 151 -75 3 3 -7 23 -23 44
-16 22 -37 59 -47 82 -18 39 -18 43 -2 59 14 14 41 18 150 20 l133 3 84 -44
c46 -25 103 -55 127 -68 l43 -24 30 35 c16 19 38 57 47 84 l17 49 101 -7 c167
-10 220 -39 154 -86 l-30 -22 -19 23 c-13 17 -24 20 -43 16 -29 -8 -89 -82
-113 -141 -18 -42 -20 -96 -4 -96 22 0 79 42 120 88 39 45 41 46 55 27 18 -25
18 -49 -2 -91 -21 -43 -125 -157 -178 -193 -46 -31 -134 -56 -169 -47 -13 3
-66 34 -118 69 -115 78 -174 109 -306 158 -288 107 -562 173 -807 195 -246 21
-310 45 -291 104 8 26 -5 26 -91 -1 -189 -58 -328 -173 -371 -306 l-17 -53
-103 0 c-283 0 -582 -132 -870 -383 -42 -37 -78 -65 -80 -63 -8 8 49 163 83
225 124 226 318 368 601 440 45 12 108 21 140 21 l58 1 -47 43 c-90 83 -246
145 -366 146 -103 0 -257 -49 -351 -111 -100 -67 85 122 201 204 71 51 236
133 287 143 33 7 43 24 14 24 -56 0 -227 -34 -306 -60 -154 -52 -254 -113
-370 -228 -76 -74 -141 -165 -186 -260 -21 -46 -42 -72 -77 -99 -109 -82 -245
-206 -306 -280 -87 -105 -120 -156 -171 -260 -36 -74 -54 -128 -103 -300 -2
-9 -26 -13 -74 -13 -83 0 -80 -16 -23 140 54 149 193 423 281 555 98 146 214
281 316 365 42 35 74 65 72 68 -8 8 -130 -65 -207 -124 -163 -125 -289 -259
-398 -419 -113 -168 -179 -301 -241 -488 l-32 -97 -69 0 -68 0 35 102 c86 251
251 532 425 727 292 325 719 572 1190 686 160 38 209 75 209 154 -1 102 -42
120 -399 171 -117 16 -250 40 -295 51 -313 80 -595 248 -842 501 -179 183
-291 335 -138 187 49 -47 123 -111 164 -141z m457 -693 c77 -39 176 -75 207
-75 36 -1 -3 -17 -57 -23 -49 -7 -157 -52 -157 -66 0 -5 25 -11 56 -15 102
-12 154 -49 139 -97 -10 -30 -62 -86 -111 -120 -23 -16 -45 -29 -47 -29 -2 0
-7 18 -11 39 -8 49 -48 98 -101 122 -99 45 -331 13 -678 -95 -28 -9 -45 -11
-41 -5 12 21 200 155 296 212 147 88 363 184 420 186 9 1 47 -15 85 -34z
m-143 -543 c-130 -114 -142 -122 -171 -122 -93 0 -224 -45 -283 -98 l-42 -37
71 0 c83 0 101 -11 82 -52 -7 -16 -40 -73 -74 -128 -61 -98 -62 -99 -65 -65
-9 107 -73 140 -212 110 -73 -17 -258 -114 -357 -189 -51 -38 -93 -66 -93 -62
0 4 35 47 78 96 244 280 528 467 822 540 112 28 135 32 215 33 l60 1 -31 -27z
m2519 -207 c288 -32 531 -94 723 -185 134 -63 213 -117 303 -208 l75 -75 70 0
c41 0 87 7 109 16 20 9 37 12 37 8 0 -20 -81 -130 -120 -164 -53 -45 -180 -96
-180 -71 0 3 11 20 25 38 25 33 55 96 55 117 0 8 -16 10 -50 7 l-51 -5 -41 70
-41 71 -16 -24 c-37 -57 -87 -102 -145 -130 -74 -36 -132 -50 -123 -29 51 117
58 145 59 212 1 40 -2 86 -6 103 l-7 32 -67 -34 c-37 -18 -79 -35 -93 -38 -25
-5 -27 -4 -33 49 -9 80 -33 124 -51 96 -8 -15 -106 -69 -137 -76 -25 -6 -28
-4 -28 18 0 32 -17 77 -37 100 -16 17 -18 16 -47 -12 -31 -29 -91 -63 -133
-75 -18 -6 -22 -2 -28 26 -12 53 -44 108 -71 120 -21 10 -27 9 -39 -9 -17 -25
-103 -83 -122 -83 -7 0 -20 18 -29 40 -9 22 -28 49 -42 61 l-26 20 -52 -52
c-29 -28 -57 -49 -62 -45 -6 3 -13 20 -17 36 -4 17 -18 44 -32 60 l-25 30 177
0 c97 0 240 -7 318 -15z m-1817 -259 c-131 -155 -224 -402 -242 -648 l-7 -88
-149 0 -148 0 4 23 c3 12 12 56 20 98 48 243 188 450 399 586 53 35 154 88
175 92 1 1 -22 -28 -52 -63z m1434 -16 c17 -40 10 -44 -34 -23 l-37 17 23 18
c31 24 34 23 48 -12z m240 -132 l13 -78 41 -12 c22 -7 76 -12 118 -13 88 0 82
16 48 -117 l-16 -68 33 -6 c18 -3 68 -5 111 -3 l79 4 -19 -85 c-10 -47 -25
-108 -33 -137 -8 -28 -15 -54 -15 -58 0 -4 55 -5 123 -3 134 6 211 28 269 76
l31 27 -6 -43 c-6 -50 -46 -113 -96 -151 -33 -25 -41 -26 -150 -26 -104 0
-120 2 -154 23 -47 30 -77 82 -118 206 -20 61 -51 127 -80 172 -55 83 -183
215 -277 286 -37 28 -58 50 -50 52 51 15 109 39 114 48 11 17 21 -11 34 -94z
m-2980 -150 c-27 -69 -30 -73 -85 -101 -57 -28 -251 -206 -210 -192 11 4 43 9
72 12 46 5 54 3 78 -21 23 -23 26 -33 23 -79 l-3 -52 -217 -2 c-120 -2 -218 0
-218 3 0 4 21 36 47 73 56 79 196 219 281 281 80 58 231 150 247 150 9 0 4
-23 -15 -72z m2658 -104 c84 -28 202 -96 242 -140 24 -26 23 -26 -23 5 -63 43
-156 84 -239 106 -167 44 -310 -18 -461 -199 l-50 -61 444 -5 c412 -5 444 -6
447 -22 3 -17 -25 -18 -483 -18 -386 0 -485 3 -479 13 54 90 159 206 241 264
121 86 225 103 361 57z m1409 -204 c-8 -72 -39 -149 -73 -181 -19 -18 -41 -25
-97 -30 -40 -4 -74 -5 -75 -4 -2 2 14 13 36 24 53 27 136 122 170 193 15 31
31 57 36 57 5 1 6 -26 3 -59z m-2741 -265 c60 -18 127 -72 157 -129 19 -35 22
-57 22 -156 0 -124 -8 -152 -59 -199 l-26 -24 35 -38 c19 -21 37 -49 40 -62 4
-13 5 -138 3 -278 -3 -286 -6 -295 -85 -370 -69 -66 -109 -79 -333 -109 -113
-16 -272 -40 -354 -55 -81 -15 -149 -25 -152 -22 -4 4 5 528 22 1194 l6 252
107 4 c330 9 569 7 617 -8z m1184 -110 l0 -125 -231 0 -232 0 7 -61 c3 -34 6
-91 6 -125 l0 -64 180 0 180 0 0 -127 0 -128 -180 3 -180 4 0 -165 0 -164 187
-7 c102 -4 206 -9 230 -13 l43 -6 0 -125 0 -124 -62 6 c-35 3 -225 9 -422 12
l-359 7 6 270 c4 149 7 447 7 664 l0 393 410 0 410 0 0 -125z m510 112 c0 -29
-30 -48 -145 -93 -66 -26 -123 -50 -128 -53 -4 -4 44 -29 107 -56 l113 -48 8
-441 c4 -243 8 -442 9 -443 7 -8 178 -28 182 -22 3 5 3 41 0 81 -3 40 -8 229
-12 421 l-5 347 63 0 c73 0 160 20 237 56 30 13 56 23 58 20 2 -2 9 -238 15
-524 12 -563 12 -572 -39 -632 -54 -65 -141 -85 -253 -59 -24 5 -120 23 -213
39 -192 33 -251 56 -316 121 -86 86 -84 74 -93 584 -5 248 -6 469 -3 493 9 79
59 149 135 188 52 26 85 32 188 33 70 1 92 -2 92 -12z m-2605 -229 c-10 -408
-25 -1088 -25 -1179 l0 -87 -32 -7 c-18 -4 -98 -25 -177 -47 -78 -21 -146 -38
-150 -36 -4 2 23 1566 28 1575 1 2 132 8 274 11 l88 2 -6 -232z m-452 215 c2
-5 1 -73 -2 -153 l-6 -145 -80 -6 c-44 -4 -144 -13 -221 -19 l-142 -13 -4
-216 c-3 -119 -4 -218 -2 -219 2 -3 275 41 332 53 l22 5 0 -154 0 -154 -49
-11 c-27 -6 -107 -24 -179 -41 l-130 -31 -7 -332 -7 -333 -47 -18 c-25 -11
-101 -44 -169 -74 -67 -30 -124 -53 -126 -51 -2 2 -1 428 2 946 l5 943 31 5
c17 2 173 8 346 13 173 5 341 9 372 10 31 1 58 -1 61 -5z m4693 -18 c20 -5 21
-10 27 -396 4 -216 7 -642 7 -947 0 -459 -2 -553 -13 -549 -80 31 -297 132
-297 139 0 25 -292 794 -307 808 -3 3 -3 -154 0 -347 3 -194 3 -353 0 -353 -3
0 -83 25 -178 56 l-173 56 -6 202 c-3 110 -8 329 -11 486 -3 157 -8 375 -11
485 l-6 201 60 35 c34 20 81 39 107 42 26 4 74 19 106 33 33 15 61 25 63 23 7
-7 156 -356 233 -544 l74 -180 -6 372 c-4 205 -4 376 -2 380 5 8 296 6 333 -2z
m-2569 -1461 c51 -8 63 -35 63 -139 0 -134 7 -129 -199 -133 l-171 -3 -25 25
c-23 23 -25 32 -25 114 0 120 10 133 111 142 73 6 183 4 246 -6z m-494 -15
c31 -17 37 -28 37 -72 0 -27 -7 -45 -23 -61 -25 -25 -48 -29 -199 -42 l-78 -6
0 -54 c0 -39 -4 -54 -14 -54 -7 0 -34 -3 -60 -6 l-46 -7 0 146 0 145 88 7 c48
3 94 8 102 9 39 9 174 5 193 -5z m994 -10 c79 -14 103 -36 103 -93 0 -55 -16
-68 -86 -74 l-55 -5 67 -62 68 -61 -67 6 c-63 7 -70 10 -133 65 -36 32 -68 65
-71 72 -10 26 17 38 85 38 l67 0 0 30 c0 27 -4 30 -40 37 -22 4 -61 7 -87 7
l-48 1 0 -116 0 -117 -46 7 c-26 3 -53 6 -60 6 -11 0 -14 29 -14 141 l0 142
128 -7 c70 -4 155 -11 189 -17z m-1497 -43 c0 -28 -4 -29 -138 -47 -100 -13
-129 -26 -119 -53 6 -15 19 -16 115 -10 123 8 142 -1 142 -61 0 -47 -8 -64
-42 -81 -22 -12 -279 -63 -320 -64 -5 0 -8 11 -8 24 0 29 4 30 129 51 98 15
129 31 117 61 -5 14 -15 16 -59 10 -152 -20 -153 -20 -176 3 -39 39 -22 109
33 135 33 15 235 53 299 55 22 1 27 -3 27 -23z m1875 -6 c191 -30 185 -28 185
-57 0 -26 3 -26 -115 -9 -6 0 -11 -44 -13 -111 -3 -125 1 -119 -74 -107 l-37
7 -3 116 -3 116 -62 9 c-61 9 -63 11 -63 39 0 26 3 28 28 23 15 -3 86 -15 157
-26z m-2365 -75 c0 -26 -11 -31 -135 -55 -87 -18 -125 -35 -125 -59 0 -27 11
-32 51 -21 19 5 73 18 122 29 l87 19 0 -28 c0 -26 -3 -28 -97 -48 -149 -33
-158 -36 -161 -60 -5 -33 18 -36 120 -13 51 12 103 24 116 26 19 5 22 1 22
-22 0 -28 -1 -28 -153 -61 -228 -49 -217 -53 -217 83 0 57 3 111 6 120 13 32
80 55 299 104 61 14 65 13 65 -14z m2880 -28 c118 -30 125 -33 128 -58 l3 -27
-118 29 c-65 15 -122 24 -126 19 -5 -4 -7 -16 -5 -26 3 -19 26 -29 139 -59 77
-20 109 -52 109 -108 0 -79 -13 -81 -222 -35 -145 32 -148 34 -148 59 l0 27
108 -24 c141 -31 144 -31 140 3 -3 23 -10 29 -48 39 -25 7 -67 18 -94 25 -73
19 -106 51 -106 103 0 23 5 47 12 54 20 20 96 13 228 -21z"/>
<path d="M3520 4089 c-89 -25 -122 -51 -52 -43 20 3 59 -1 86 -8 48 -13 51
-15 74 -73 63 -157 180 -241 365 -265 65 -8 198 0 258 15 16 4 50 -2 88 -15
104 -35 441 -74 454 -53 3 5 -22 15 -56 22 -190 38 -461 153 -757 321 -157 89
-224 110 -339 109 -47 0 -102 -5 -121 -10z m460 -224 c41 -21 100 -49 130 -62
l55 -24 -90 4 c-97 5 -156 23 -218 68 -42 30 -90 90 -101 126 -6 20 3 17 71
-26 44 -27 113 -66 153 -86z"/>
<path d="M5075 3410 c-21 -34 184 -163 279 -176 42 -6 46 -5 46 15 0 31 -75
108 -135 138 -57 30 -177 44 -190 23z"/>
<path d="M2036 2002 c-3 -5 -6 -64 -7 -132 l-1 -123 83 2 c46 1 87 5 91 7 4 3
8 61 8 130 l0 124 -84 0 c-47 0 -87 -4 -90 -8z"/>
<path d="M2112 1489 c-45 -4 -84 -8 -87 -10 -7 -7 -9 -344 -2 -343 4 1 43 5
88 9 46 4 82 12 85 19 2 6 3 84 2 171 l-3 160 -83 -6z"/>
<path d="M2932 708 c-16 -16 -16 -140 0 -156 7 -7 40 -12 78 -12 38 0 71 5 78
12 7 7 12 40 12 78 0 38 -5 71 -12 78 -7 7 -40 12 -78 12 -38 0 -71 -5 -78
-12z"/>
<path d="M2465 701 c-59 -6 -60 -7 -63 -38 l-3 -33 65 0 c79 0 116 12 116 39
0 19 -29 43 -47 39 -4 -1 -35 -4 -68 -7z"/>
</g>
</svg>
