<?xml version="1.0" standalone="no"?>
<!DOCTYPE svg PUBLIC "-//W3C//DTD SVG 20010904//EN"
 "http://www.w3.org/TR/2001/REC-SVG-20010904/DTD/svg10.dtd">
<svg version="1.0" xmlns="http://www.w3.org/2000/svg"
 width="512.000000pt" height="512.000000pt" viewBox="0 0 512.000000 512.000000"
 preserveAspectRatio="xMidYMid meet">

<g transform="translate(0.000000,512.000000) scale(0.100000,-0.100000)"
fill="currentColor" stroke="none">
<path d="M2495 5106 c-16 -8 -203 -188 -415 -400 -212 -212 -388 -386 -392
-386 -5 0 -8 37 -8 83 0 104 -23 151 -90 185 -43 21 -54 22 -325 22 -271 0
-282 -1 -325 -22 -30 -15 -53 -37 -67 -63 -23 -40 -23 -41 -23 -545 l0 -505
-344 -345 c-300 -300 -345 -350 -351 -382 -15 -78 20 -149 88 -185 36 -18 114
-20 148 -3 13 7 507 494 1096 1083 l1073 1072 1077 -1076 c981 -979 1082
-1077 1121 -1087 125 -30 230 69 207 196 -6 33 -132 163 -1158 1191 -676 676
-1165 1159 -1184 1167 -40 17 -89 17 -128 0z m-1145 -978 l0 -153 -77 -77
c-43 -43 -81 -78 -85 -78 -5 0 -8 104 -8 230 l0 230 85 0 85 0 0 -152z"/>
<path d="M2500 4289 c-31 -12 -1914 -1892 -1938 -1934 -16 -28 -17 -118 -20
-1085 -2 -580 0 -1078 3 -1107 7 -57 34 -104 78 -137 28 -21 36 -21 745 -24
801 -3 776 -5 830 66 l27 35 3 549 2 548 330 0 330 0 2 -548 3 -549 27 -35
c54 -71 29 -69 830 -66 709 3 717 3 745 24 44 33 71 80 78 137 3 29 5 527 3
1107 -3 967 -4 1057 -20 1085 -26 46 -1909 1923 -1941 1935 -35 12 -83 12
-117 -1z m902 -1236 l838 -838 0 -942 0 -943 -510 0 -510 0 0 533 c0 533 0
533 -22 577 -17 33 -35 51 -68 68 -44 22 -45 22 -570 22 -525 0 -526 0 -570
-22 -33 -17 -51 -35 -67 -68 -23 -44 -23 -44 -23 -577 l0 -533 -510 0 -510 0
0 942 0 943 837 837 c461 461 840 838 843 838 3 0 382 -377 842 -837z"/>
</g>
</svg>
