<?xml version="1.0" standalone="no"?>
<!DOCTYPE svg PUBLIC "-//W3C//DTD SVG 20010904//EN"
 "http://www.w3.org/TR/2001/REC-SVG-20010904/DTD/svg10.dtd">
<svg version="1.0" xmlns="http://www.w3.org/2000/svg"
 width="443.000000pt" height="391.000000pt" viewBox="0 0 443.000000 391.000000"
 preserveAspectRatio="xMidYMid meet">

<g transform="translate(0.000000,391.000000) scale(0.100000,-0.100000)"
fill= "currentColor" stroke="none">
<path d="M0 3850 c0 -49 3 -58 15 -54 8 4 15 12 15 20 0 8 4 14 10 14 5 0 7
-13 3 -30 -5 -28 -4 -30 26 -30 19 0 34 -6 37 -15 4 -8 12 -15 20 -15 19 0 64
-22 64 -32 0 -4 -18 -8 -40 -8 -21 0 -49 -4 -62 -9 -13 -5 -36 -13 -53 -16
l-30 -7 28 -20 c33 -24 57 -67 57 -103 0 -32 -6 -32 -40 5 -15 17 -33 30 -39
30 -17 0 -13 -61 6 -82 15 -17 15 -18 0 -18 -14 0 -17 -11 -17 -66 l0 -65 30
17 c28 17 30 17 49 0 19 -18 34 -10 28 16 -2 7 -2 10 0 6 3 -5 12 -8 20 -8 10
0 14 6 10 20 -3 13 0 20 8 20 30 0 65 24 65 44 1 37 30 -57 30 -97 l0 -38 -52
2 c-29 1 -70 -2 -91 -6 -23 -5 -42 -3 -51 4 -22 18 -46 2 -46 -30 0 -21 5 -29
18 -29 10 0 22 4 27 9 14 14 97 20 117 10 11 -6 27 -5 43 3 21 9 28 9 34 -1 4
-6 11 -161 15 -344 4 -183 11 -406 16 -497 5 -91 9 -304 9 -475 0 -170 0 -321
0 -335 0 -14 3 -54 7 -89 5 -48 3 -65 -7 -72 -15 -9 -14 -130 1 -159 10 -19
18 -212 25 -615 l4 -280 -21 50 c-16 36 -22 71 -23 129 0 70 -3 80 -21 87 -16
5 -24 22 -33 71 -7 34 -17 79 -23 100 -11 38 -14 73 -10 151 2 40 5 47 22 47
11 0 20 4 20 10 0 5 -16 8 -35 7 -35 -2 -36 -1 -70 74 -29 64 -34 81 -25 104
5 14 10 40 10 56 0 25 3 29 19 24 17 -5 19 1 20 90 2 104 5 121 33 148 25 24
24 57 -2 57 -36 0 -53 -54 -53 -167 0 -57 -4 -103 -8 -103 -21 0 -54 126 -90
345 -6 33 -12 61 -15 64 -2 2 -4 -395 -4 -882 l0 -887 2215 0 2215 0 0 166 0
165 -39 119 c-22 65 -46 126 -55 137 -9 10 -40 52 -69 94 -85 125 -111 158
-129 164 -30 10 -21 35 12 35 31 0 39 17 20 36 -8 8 -24 6 -56 -4 -47 -15 -74
-6 -74 24 0 8 -10 14 -23 14 -13 0 -31 6 -40 13 -14 10 -3 12 70 15 71 2 94
-2 129 -19 26 -12 52 -18 64 -14 13 4 31 -1 49 -14 16 -12 39 -21 50 -21 13 0
21 -6 21 -17 0 -15 2 -15 19 1 12 11 21 14 26 7 3 -6 10 -11 16 -11 11 0 13
949 2 951 -34 7 -90 5 -100 -3 -7 -6 -14 -5 -18 2 -4 6 -14 9 -22 6 -8 -3 -23
-1 -33 4 -15 8 -23 5 -38 -15 -12 -15 -23 -21 -27 -15 -3 5 -1 10 4 10 6 0 11
4 11 8 0 11 -113 12 -127 0 -6 -5 -14 -5 -17 0 -3 5 -31 5 -67 0 -37 -5 -76
-4 -96 1 -29 8 -37 7 -54 -10 -25 -25 -35 -19 -19 10 9 18 8 21 -9 21 -11 0
-22 -4 -25 -8 -7 -12 -96 -13 -117 -2 -20 11 -59 2 -59 -14 0 -7 -22 -11 -57
-12 -32 0 -69 -1 -83 -3 -14 -1 -46 1 -71 5 -41 6 -47 10 -62 45 -9 22 -17 45
-17 52 0 27 -67 187 -78 187 -4 0 -14 -17 -21 -37 -8 -21 -24 -60 -37 -88 -40
-87 -64 -155 -64 -180 0 -22 -4 -25 -40 -25 -34 0 -40 -3 -41 -22 -1 -21 -2
-21 -6 -3 -8 34 -20 39 -49 20 -16 -10 -29 -13 -33 -7 -6 9 -212 -25 -255 -43
-29 -12 -46 17 -36 63 5 20 11 84 14 141 4 57 11 111 16 121 5 10 7 31 4 47
-4 20 -1 33 10 42 9 8 16 25 16 40 1 14 7 53 15 86 8 33 15 75 15 93 0 20 5
32 13 32 32 0 45 108 16 126 -5 3 -9 49 -9 103 0 57 -5 102 -11 108 -14 14 10
68 31 69 59 4 57 2 64 56 4 29 13 56 19 60 7 4 56 8 110 8 62 0 97 4 97 11 0
6 -29 10 -77 9 -104 -2 -103 -2 -103 15 0 18 -14 19 -41 5 -14 -8 -19 -21 -19
-53 0 -24 -6 -50 -12 -59 -51 -62 -110 14 -67 87 23 39 29 146 8 171 -8 10 -4
19 18 38 15 14 35 28 44 31 11 4 15 16 12 42 -5 64 -20 89 -64 102 -39 12 -40
13 -33 49 7 41 14 54 14 28 0 -27 32 -15 42 16 7 21 5 32 -9 47 -16 17 -24 19
-58 10 -22 -5 -51 -12 -65 -16 -14 -3 -40 -5 -57 -5 -18 0 -33 -4 -33 -9 0
-14 -123 -1 -132 14 -4 8 -25 26 -48 42 -46 32 -51 45 -16 45 18 0 25 6 28 23
2 14 9 21 20 21 10 -1 20 7 23 17 4 11 16 19 27 19 19 0 19 1 -5 20 -32 25
-37 25 -67 -2 -14 -13 -43 -29 -65 -37 -22 -8 -45 -21 -52 -30 -10 -14 -15
-14 -34 -3 -14 9 -24 10 -28 3 -4 -5 -27 -13 -51 -17 -44 -6 -45 -6 -22 11 23
17 23 17 4 35 -17 16 -29 18 -83 11 -90 -11 -149 -8 -158 8 -5 8 -17 11 -30 6
-12 -4 -21 -2 -21 4 0 6 5 11 12 11 6 0 9 2 7 4 -4 4 -95 -5 -282 -27 -96 -12
-129 -20 -179 -46 -33 -18 -82 -35 -109 -38 -26 -3 -47 -8 -46 -12 2 -7 -7
-11 -24 -11 -8 0 -8 5 1 15 10 12 10 15 -3 15 -24 0 -27 22 -27 201 l0 169
-26 0 -25 0 2 -196 c3 -164 5 -197 18 -204 14 -8 14 -9 -1 -10 -11 0 -18 -8
-18 -21 0 -16 5 -19 20 -15 11 3 28 8 39 11 10 3 24 -1 30 -9 10 -12 5 -19
-31 -38 -71 -38 -81 -41 -136 -43 -51 -3 -52 -2 -37 15 15 17 15 19 -14 25
-40 8 -42 41 -4 70 28 23 25 45 -8 45 -10 0 -19 6 -19 13 0 8 -6 27 -14 43 -7
16 -19 75 -26 131 -7 56 -16 100 -20 98 -4 -3 -10 -37 -14 -77 -19 -214 -36
-303 -60 -320 -7 -5 -6 -18 2 -41 7 -18 12 -38 12 -44 0 -14 -61 -26 -73 -14
-5 5 -13 47 -18 92 -5 46 -23 164 -39 261 -17 97 -30 189 -30 203 0 19 -5 25
-22 25 -17 0 -27 -11 -40 -41 -16 -37 -16 -44 -3 -63 9 -11 19 -20 23 -18 4 1
8 -6 10 -18 3 -21 -12 -28 -23 -10 -3 6 -11 10 -16 10 -14 0 -59 -51 -70 -77
-5 -14 -14 -20 -22 -17 -16 6 -37 47 -37 72 0 11 -18 26 -50 40 -28 13 -50 24
-50 26 0 2 5 17 11 35 8 21 18 31 32 32 17 0 14 4 -13 16 -28 12 -43 13 -75 5
-25 -7 -44 -7 -50 -1 -17 17 -25 9 -25 -28 0 -34 1 -35 14 -18 13 18 15 18 40
1 48 -31 43 -69 -9 -64 -38 3 -90 -14 -107 -35 l-16 -21 -13 27 c-10 22 -10
35 -1 61 7 18 12 44 12 59 l0 27 -115 0 -115 0 0 -60z m355 -170 c-5 -8 -11
-8 -17 -2 -6 6 -7 16 -3 22 5 8 11 8 17 2 6 -6 7 -16 3 -22z m1452 -76 c-3 -3
-12 -4 -19 -1 -8 3 -5 6 6 6 11 1 17 -2 13 -5z m-1129 -42 c3 -17 -2 -22 -17
-22 -14 0 -21 6 -21 18 0 38 33 41 38 4z m1294 -32 c3 -16 1 -30 -3 -30 -12 0
-31 39 -24 50 11 19 23 10 27 -20z m-1020 -35 c6 -6 -14 -70 -25 -81 -14 -14
-19 28 -7 56 12 29 21 36 32 25z m38 -60 c0 -8 -4 -15 -10 -15 -5 0 -7 7 -4
15 4 8 8 15 10 15 2 0 4 -7 4 -15z m1790 0 c0 -8 -4 -15 -10 -15 -5 0 -10 7
-10 15 0 8 5 15 10 15 6 0 10 -7 10 -15z m-966 -4 c5 -8 -43 -31 -65 -31 -17
0 -9 17 14 28 28 13 44 14 51 3z m906 -10 l25 -7 -24 -6 c-24 -7 -25 -15 -5
-62 7 -18 4 -19 -36 -12 -51 8 -60 13 -60 32 0 8 11 14 28 15 27 1 27 1 -4 9
-18 4 -40 11 -50 15 -38 17 74 31 126 16z m-280 -10 c0 -5 -7 -11 -15 -15 -15
-5 -20 5 -8 17 9 10 23 9 23 -2z m-1485 -21 c3 -5 1 -10 -4 -10 -6 0 -11 5
-11 10 0 6 2 10 4 10 3 0 8 -4 11 -10z m1635 -20 c0 -5 -2 -10 -4 -10 -3 0 -8
5 -11 10 -3 6 -1 10 4 10 6 0 11 -4 11 -10z m-1490 -14 c0 -3 -4 -8 -10 -11
-5 -3 -10 -1 -10 4 0 6 5 11 10 11 6 0 10 -2 10 -4z m1057 -48 c-3 -8 -6 -5
-6 6 -1 11 2 17 5 13 3 -3 4 -12 1 -19z m507 -14 c3 -8 3 -21 -1 -30 -4 -12
-10 -8 -24 16 -11 17 -19 32 -19 34 0 10 39 -8 44 -20z m-1699 -34 c-22 -24
-14 -36 13 -21 28 15 65 14 60 -1 -3 -7 -14 -17 -26 -23 -12 -5 -22 -17 -22
-27 0 -9 -12 -25 -26 -35 -14 -10 -33 -26 -42 -35 -19 -21 -43 -23 -60 -6 -9
9 -4 20 25 50 36 37 36 38 13 38 -23 1 -21 4 24 46 48 44 77 54 41 14z m1560
0 c3 -5 -1 -10 -9 -10 -9 0 -16 5 -16 10 0 6 4 10 9 10 6 0 13 -4 16 -10z
m-2205 -71 c0 -42 -4 -68 -10 -64 -9 6 -12 113 -3 128 10 17 13 3 13 -64z
m1594 36 c4 -12 -6 -15 -56 -15 -68 0 -71 5 -12 19 56 13 61 13 68 -4z m-561
-11 c-18 -13 -20 -20 -13 -40 8 -19 6 -26 -5 -29 -8 -3 -21 -7 -29 -9 -20 -6
-48 27 -40 48 3 9 16 16 28 16 11 0 30 7 40 15 11 8 25 15 30 14 6 0 1 -7 -11
-15z m243 -13 c-1 -24 -4 -27 -18 -20 -28 15 -30 29 -6 38 13 6 23 10 24 10 1
1 1 -12 0 -28z m1214 9 c0 -13 -43 -30 -73 -30 l-22 1 24 19 c24 21 71 27 71
10z m-880 -44 c0 -3 -4 -8 -10 -11 -5 -3 -10 -1 -10 4 0 6 5 11 10 11 6 0 10
-2 10 -4z m-30 -62 c0 -14 -12 -19 -23 -8 -9 9 4 35 14 28 5 -3 9 -12 9 -20z
m-970 -32 c0 -4 -9 -13 -20 -20 -22 -13 -27 -3 -8 16 14 14 28 16 28 4z m661
-15 c-10 -9 -11 -8 -5 6 3 10 9 15 12 12 3 -3 0 -11 -7 -18z m189 -19 c0 -5
-9 -8 -20 -8 -23 0 -26 10 -8 28 9 9 14 9 20 -1 4 -6 8 -15 8 -19z m-450 -8
c0 -5 -9 -10 -20 -10 -11 0 -20 5 -20 10 0 6 9 10 20 10 11 0 20 -4 20 -10z
m380 0 c0 -5 -4 -10 -9 -10 -6 0 -13 5 -16 10 -3 6 1 10 9 10 9 0 16 -4 16
-10z m-811 -40 c-13 -35 -43 -40 -59 -11 -17 33 -12 41 29 41 l40 0 -10 -30z
m811 0 c6 -11 20 -20 30 -20 13 0 20 -7 20 -20 0 -13 7 -20 20 -20 25 0 70
-66 70 -102 0 -16 3 -28 8 -28 4 0 12 -10 17 -22 9 -20 16 -23 58 -20 29 3 47
0 47 -7 0 -6 -8 -11 -19 -11 -10 0 -24 -7 -32 -16 -8 -9 -21 -13 -35 -10 -13
4 -25 2 -28 -3 -8 -13 -86 -2 -114 16 -30 19 -41 9 -18 -16 10 -11 15 -25 11
-30 -9 -16 -45 -13 -51 4 -4 8 -12 15 -19 15 -19 0 -85 77 -85 100 0 14 7 20
22 20 l22 0 -22 20 c-34 32 -29 117 5 88 17 -14 42 15 43 49 0 19 11 30 32 32
4 1 12 -8 18 -19z m-465 -20 c-3 -5 -10 -10 -16 -10 -5 0 -9 5 -9 10 0 6 7 10
16 10 8 0 12 -4 9 -10z m-40 -15 c0 -5 -19 -11 -42 -13 -40 -3 -58 10 -30 22
20 8 72 2 72 -9z m370 -74 c-4 -17 -13 -31 -21 -31 -20 0 -17 -23 5 -52 11
-13 23 -36 26 -50 6 -22 3 -27 -17 -30 -35 -5 -96 15 -112 37 -27 36 -20 81
17 109 19 15 41 26 50 26 9 0 21 9 28 21 16 30 33 9 24 -30z m-835 13 c0 -8
-4 -14 -9 -14 -12 0 -32 26 -25 33 10 9 34 -4 34 -19z m1327 -105 c23 -20 14
-29 -26 -29 -37 0 -51 11 -51 42 0 13 57 3 77 -13z m-1636 -83 c31 -9 72 -23
90 -31 57 -24 2 -18 -81 10 -41 13 -83 25 -92 25 -10 0 -18 5 -18 11 0 12 9
11 101 -15z m839 15 c0 -6 -4 -13 -10 -16 -5 -3 -10 1 -10 9 0 9 5 16 10 16 6
0 10 -4 10 -9z m350 -76 c0 -8 -4 -15 -10 -15 -5 0 -7 7 -4 15 4 8 8 15 10 15
2 0 4 -7 4 -15z m1128 -18 c2 -10 -3 -17 -12 -17 -10 0 -16 9 -16 21 0 24 23
21 28 -4z m-1378 3 c0 -5 -2 -10 -4 -10 -3 0 -8 5 -11 10 -3 6 -1 10 4 10 6 0
11 -4 11 -10z m-1022 -12 c7 -7 12 -19 12 -27 0 -9 6 -28 14 -43 21 -41 47
-133 62 -227 7 -46 20 -93 27 -105 8 -11 17 -39 21 -61 17 -94 27 -75 52 103
4 23 11 42 15 42 21 0 5 -124 -30 -240 -5 -18 3 -69 25 -160 40 -164 73 -462
54 -485 -7 -8 -16 -13 -20 -10 -16 10 -45 120 -75 290 -24 135 -25 139 -35
129 -5 -5 -23 -70 -39 -144 -45 -205 -51 -228 -67 -240 -11 -10 -15 -9 -20 5
-4 9 -2 21 5 28 6 6 11 19 11 29 0 10 9 46 19 80 11 35 27 97 36 138 35 158
47 206 61 243 18 48 18 61 -1 53 -21 -8 -33 20 -70 169 -18 74 -36 138 -39
144 -10 16 -46 221 -46 263 0 39 8 46 28 26z m887 -38 c8 -25 21 -26 35 -2 9
14 10 12 8 -13 -2 -21 -9 -31 -23 -33 -11 -3 -29 -14 -40 -25 l-20 -22 -3 23
c-4 27 16 92 28 92 5 0 12 -9 15 -20z m432 -60 c49 -59 73 -101 73 -130 0 -18
5 -30 13 -30 8 0 18 -10 24 -22 6 -13 27 -43 47 -66 50 -60 48 -72 -9 -59 -41
9 -51 7 -116 -23 -53 -24 -79 -31 -105 -27 -30 5 -35 3 -40 -19 -9 -37 -27
-29 -20 9 4 17 11 73 16 122 19 175 49 275 81 275 6 0 22 -14 36 -30z m-901
-132 c1 -25 6 -54 12 -64 10 -17 12 -17 22 10 16 43 23 26 26 -68 2 -46 11
-129 19 -183 9 -54 23 -142 31 -197 8 -54 17 -102 20 -108 3 -5 8 -43 10 -86
7 -112 34 -360 44 -407 5 -22 10 -52 10 -67 l0 -28 -83 0 c-88 0 -126 15 -125
48 0 9 -3 284 -6 611 -6 491 -5 592 6 589 8 -3 14 -22 14 -50z m64 35 c0 -10
-20 -40 -20 -31 0 3 -3 13 -6 22 -4 11 -1 16 10 16 9 0 16 -3 16 -7z m74 -79
c12 -12 28 -23 36 -26 11 -3 14 -33 15 -134 1 -71 5 -199 9 -284 3 -85 8 -227
11 -315 3 -87 8 -161 10 -164 3 -2 5 181 5 408 0 272 3 410 10 406 6 -3 10
-15 10 -26 0 -10 13 -31 30 -45 16 -15 27 -30 25 -34 -2 -4 0 -22 5 -40 5 -18
14 -81 20 -139 6 -58 13 -126 16 -151 2 -25 9 -94 14 -155 5 -60 17 -165 25
-233 19 -150 21 -220 7 -234 -6 -6 -38 -7 -86 -3 l-76 7 0 62 c0 33 -5 81 -11
106 -12 48 -19 111 -43 345 -8 83 -24 238 -36 345 -21 201 -34 380 -24 345 3
-11 16 -29 28 -41z m1254 -67 c3 -21 -2 -28 -22 -33 -27 -6 -56 -43 -56 -70 0
-9 -9 -18 -20 -21 -11 -3 -20 -7 -20 -9 0 -12 52 -84 65 -91 9 -6 14 -19 12
-34 -4 -21 -9 -24 -40 -21 -19 1 -38 -2 -42 -8 -3 -5 -16 -10 -29 -10 -13 0
-31 -9 -41 -20 -31 -35 -40 -24 -40 47 0 38 -3 79 -8 93 -10 35 6 55 45 55 28
0 33 4 39 33 4 18 16 43 27 55 11 12 25 32 31 45 26 51 93 43 99 -11z m-1833
23 c3 -5 1 -10 -4 -10 -6 0 -11 5 -11 10 0 6 2 10 4 10 3 0 8 -4 11 -10z
m1034 -166 c50 -98 61 -125 55 -136 -6 -10 -54 37 -54 52 0 6 -20 7 -46 3 -45
-6 -45 -6 -40 21 4 14 8 37 11 51 4 17 1 27 -10 31 -8 4 -15 18 -15 34 0 26 2
27 32 21 27 -6 37 -17 67 -77z m36 66 c3 -5 1 -10 -4 -10 -6 0 -11 5 -11 10 0
6 2 10 4 10 3 0 8 -4 11 -10z m-1038 -72 c-3 -8 -6 -5 -6 6 -1 11 2 17 5 13 3
-3 4 -12 1 -19z m-37 -89 c0 -21 5 -29 17 -29 13 0 14 -3 5 -12 -8 -8 -15 -8
-21 -2 -12 13 -22 86 -10 79 5 -4 9 -19 9 -36z m833 11 c27 -21 26 -13 32
-275 4 -183 28 -288 68 -299 36 -10 75 -7 83 6 4 6 7 49 6 95 -1 72 1 83 16
83 50 -1 212 -216 212 -282 0 -10 -7 -18 -17 -18 -23 -1 -51 -25 -89 -77 -33
-45 -44 -46 -44 -5 0 33 27 62 59 63 17 1 13 4 -14 8 l-40 6 -3 53 c-2 36 -7
52 -17 52 -16 0 -26 -148 -12 -191 12 -39 4 -262 -10 -266 -6 -2 -14 13 -18
39 -9 55 -40 126 -67 155 -25 26 -60 30 -78 8 -21 -25 -30 -17 -30 29 0 24 -6
104 -14 178 -8 73 -17 171 -20 218 -10 133 -26 319 -35 383 -4 31 -5 57 -1 57
4 0 19 -9 33 -20z m419 -53 c3 -26 16 -64 28 -84 26 -45 17 -53 -64 -53 -41 0
-65 -5 -78 -16 -28 -26 -33 3 -10 62 14 34 26 50 41 52 13 2 23 13 27 30 12
56 16 63 32 60 12 -2 19 -18 24 -51z m-1260 -79 c-8 -8 -9 -4 -5 13 4 13 8 18
11 10 2 -7 -1 -18 -6 -23z m121 12 c-3 -12 -8 -19 -11 -16 -5 6 5 36 12 36 2
0 2 -9 -1 -20z m-33 -150 c-17 -84 -19 -88 -15 -35 6 67 28 167 33 145 1 -8
-7 -58 -18 -110z m1736 55 c-3 -9 -10 -14 -15 -11 -5 4 -11 0 -14 -6 -2 -7 -8
-10 -11 -6 -4 3 2 16 14 28 23 23 36 21 26 -5z m1109 -11 c12 -5 14 -9 4 -14
-15 -10 -41 -1 -33 11 6 11 8 11 29 3z m-2928 -26 c-3 -8 -6 -5 -6 6 -1 11 2
17 5 13 3 -3 4 -12 1 -19z m3988 -8 c3 -5 3 -15 -1 -21 -6 -11 -23 6 -24 24 0
10 18 9 25 -3z m-3998 -42 c-3 -7 -5 -2 -5 12 0 14 2 19 5 13 2 -7 2 -19 0
-25z m1393 22 c0 -5 -6 -10 -14 -10 -8 0 -18 5 -21 10 -3 6 3 10 14 10 12 0
21 -4 21 -10z m1760 6 c0 -3 -4 -8 -10 -11 -5 -3 -10 -1 -10 4 0 6 5 11 10 11
6 0 10 -2 10 -4z m174 -12 c3 -9 4 -20 0 -25 -7 -12 -34 -11 -34 1 0 6 7 10
16 10 14 0 14 3 4 15 -7 9 -8 15 -2 15 5 0 13 -7 16 -16z m-1988 -19 c-19 -14
-56 -21 -56 -10 0 4 53 22 70 24 3 0 -4 -6 -14 -14z m2579 5 c3 -5 -1 -10 -9
-10 -9 0 -16 5 -16 10 0 6 4 10 9 10 6 0 13 -4 16 -10z m-2657 -16 c30 -21 28
-42 -5 -50 -30 -8 -56 5 -61 31 -7 33 31 44 66 19z m1447 7 c7 -12 -12 -24
-25 -16 -11 7 -4 25 10 25 5 0 11 -4 15 -9z m95 -1 c0 -5 -4 -10 -10 -10 -5 0
-10 5 -10 10 0 6 5 10 10 10 6 0 10 -4 10 -10z m-270 -30 c0 -5 -5 -10 -11
-10 -5 0 -7 5 -4 10 3 6 8 10 11 10 2 0 4 -4 4 -10z m290 -10 c0 -11 -4 -20
-9 -20 -5 0 -7 9 -4 20 3 11 7 20 9 20 2 0 4 -9 4 -20z m1100 10 c0 -5 -4 -10
-10 -10 -5 0 -10 5 -10 10 0 6 5 10 10 10 6 0 10 -4 10 -10z m-490 -10 c0 -5
-4 -10 -10 -10 -5 0 -10 5 -10 10 0 6 5 10 10 10 6 0 10 -4 10 -10z m-310 -16
c0 -8 -4 -12 -10 -9 -5 3 -10 10 -10 16 0 5 5 9 10 9 6 0 10 -7 10 -16z m-583
-40 c-3 -3 -12 -4 -19 -1 -8 3 -5 6 6 6 11 1 17 -2 13 -5z m-787 -15 c0 -17
-32 -68 -47 -73 -20 -8 -20 48 -1 72 13 15 48 16 48 1z m-1706 -43 c-3 -21 -9
-35 -11 -32 -3 3 -2 21 1 42 4 20 10 34 12 31 3 -3 2 -21 -2 -41z m1445 -8
c14 -25 14 -27 -18 -57 -18 -17 -39 -31 -46 -31 -8 0 -17 -5 -20 -10 -10 -17
-88 0 -107 23 -18 24 -30 70 -23 89 4 9 33 13 102 13 95 0 98 -1 112 -27z
m1336 22 c3 -5 1 -10 -4 -10 -6 0 -11 5 -11 10 0 6 2 10 4 10 3 0 8 -4 11 -10z
m125 -10 c0 -5 -5 -10 -11 -10 -5 0 -7 5 -4 10 3 6 8 10 11 10 2 0 4 -4 4 -10z
m590 -14 c0 -2 -7 -9 -15 -16 -13 -11 -14 -10 -9 4 5 14 24 23 24 12z m-3302
-223 l82 -6 0 -77 c0 -43 4 -122 10 -176 5 -55 11 -162 14 -239 3 -77 5 -149
6 -160 1 -15 5 -11 15 13 9 21 12 40 6 50 -4 10 -6 76 -4 147 1 72 3 155 3
186 -1 70 15 88 64 71 18 -7 62 -12 98 -12 l66 0 -15 -67 c-8 -38 -12 -95 -10
-128 4 -62 39 -245 51 -263 9 -16 -39 -117 -76 -162 -18 -21 -48 -69 -67 -106
-19 -38 -50 -97 -70 -132 -32 -56 -39 -62 -61 -57 -14 4 -42 9 -63 12 -20 3
-40 9 -43 14 -10 17 -34 9 -34 -11 0 -11 -4 -20 -10 -20 -5 0 -10 7 -10 15 0
20 -61 47 -76 34 -7 -5 -21 2 -39 21 -27 28 -28 31 -11 43 16 12 16 15 2 42
-30 61 -36 143 -39 564 l-2 423 65 -6 c36 -4 102 -9 148 -13z m3252 3 c0 -3
-4 -8 -10 -11 -5 -3 -10 -1 -10 4 0 6 5 11 10 11 6 0 10 -2 10 -4z m-2222
-144 c2 -7 -3 -12 -12 -12 -9 0 -16 -8 -16 -20 0 -11 -8 -23 -17 -26 -10 -3
-28 -10 -39 -16 -34 -16 -59 -6 -62 26 -5 39 15 57 33 32 14 -19 16 -18 52 7
40 27 54 29 61 9z m-404 -79 c-4 -16 -8 -39 -8 -53 -1 -14 -4 -30 -8 -36 -4
-5 -6 -48 -5 -94 2 -62 -1 -84 -11 -88 -8 -2 -39 -29 -70 -58 -50 -48 -72 -63
-72 -50 0 19 -35 185 -50 236 -10 36 -21 86 -24 113 l-6 47 88 -6 c48 -4 89
-8 91 -10 2 -2 7 -21 11 -41 l8 -38 1 33 c1 41 20 72 44 72 16 0 18 -5 11 -27z
m2441 7 c3 -5 1 -10 -4 -10 -6 0 -11 5 -11 10 0 6 2 10 4 10 3 0 8 -4 11 -10z
m-2338 -72 c-2 -13 -4 -3 -4 22 0 25 2 35 4 23 2 -13 2 -33 0 -45z m-80 5 c-3
-10 -5 -2 -5 17 0 19 2 27 5 18 2 -10 2 -26 0 -35z m2612 16 c5 -15 19 -30 30
-34 19 -6 30 -35 14 -35 -20 0 -188 79 -191 89 -3 9 15 12 67 10 67 -3 71 -5
80 -30z m-2574 -40 c-10 -15 -25 -10 -19 6 4 8 10 12 15 9 5 -3 7 -10 4 -15z
m2679 -34 c3 -8 12 -15 21 -15 8 0 15 -5 15 -10 0 -6 -11 -8 -27 -4 -34 8 -55
23 -47 35 8 14 31 10 38 -6z m-719 -141 c-18 -120 -20 -124 -41 -124 -10 0
-14 6 -10 18 3 9 8 40 11 67 12 92 37 166 52 152 2 -3 -3 -53 -12 -113z
m-1895 96 c0 -5 -8 -10 -17 -10 -15 0 -16 2 -3 10 19 12 20 12 20 0z m-50 -15
c0 -8 -4 -15 -10 -15 -5 0 -10 7 -10 15 0 8 5 15 10 15 6 0 10 -7 10 -15z
m-647 -740 c4 -8 2 -17 -3 -20 -6 -4 -10 3 -10 14 0 25 6 27 13 6z"/>
<path d="M816 1818 c-27 -38 -16 -139 17 -160 26 -16 39 -9 33 18 -4 14 -3 24
1 21 4 -3 9 13 9 34 1 21 -2 37 -6 34 -5 -3 -8 8 -8 23 2 53 -20 67 -46 30z"/>
<path d="M1042 1768 c-20 -20 -15 -112 8 -139 20 -25 21 -24 25 32 1 14 5 31
9 38 4 6 3 11 -2 11 -6 0 -9 14 -8 31 1 35 -13 46 -32 27z"/>
<path d="M406 1272 c-3 -6 -2 -32 3 -58 5 -27 12 -143 15 -259 13 -432 18
-570 23 -577 2 -5 13 -8 24 -8 18 0 19 9 19 193 0 107 -3 296 -7 421 -6 208
-8 230 -27 259 -23 33 -41 44 -50 29z"/>
<path d="M536 1252 c-3 -4 -1 -26 4 -48 8 -38 34 -778 28 -803 -4 -19 29 -38
42 -25 17 17 -1 846 -19 867 -14 18 -46 23 -55 9z"/>
<path d="M659 595 c-1 -44 -2 -108 -3 -142 -1 -48 3 -66 16 -78 22 -18 31 -4
18 29 -5 14 -9 43 -9 64 3 80 -4 180 -12 193 -5 9 -9 -17 -10 -66z"/>
<path d="M1112 1030 c0 -14 2 -19 5 -12 2 6 2 18 0 25 -3 6 -5 1 -5 -13z"/>
<path d="M1112 940 c0 -19 2 -27 5 -17 2 9 2 25 0 35 -3 9 -5 1 -5 -18z"/>
<path d="M531 3894 c0 -11 3 -14 6 -6 3 7 2 16 -1 19 -3 4 -6 -2 -5 -13z"/>
<path d="M2876 3894 c-4 -9 -4 -19 -1 -22 2 -3 7 3 11 12 4 9 4 19 1 22 -2 3
-7 -3 -11 -12z"/>
<path d="M3045 3889 c-14 -60 -22 -118 -15 -114 9 6 33 125 26 132 -3 3 -8 -5
-11 -18z"/>
<path d="M3220 3896 c0 -7 -2 -29 -5 -47 -4 -28 -3 -26 10 11 18 54 17 50 5
50 -5 0 -10 -6 -10 -14z"/>
<path d="M3602 3888 c4 -29 48 -36 72 -13 26 26 19 35 -30 35 -41 0 -45 -2
-42 -22z"/>
<path d="M3893 3885 c31 -27 66 -32 86 -12 10 10 16 7 31 -13 l18 -25 7 27 c4
15 4 32 0 37 -8 14 -75 14 -75 1 0 -5 -13 -10 -29 -10 -17 0 -33 5 -36 10 -3
6 -12 10 -18 10 -7 0 1 -12 16 -25z"/>
<path d="M4318 3865 c11 -36 19 -45 37 -45 17 0 25 7 29 28 4 15 9 35 12 45 5
15 -2 17 -44 17 l-49 0 15 -45z"/>
<path d="M3810 3851 c0 -13 28 -33 41 -29 8 3 6 9 -5 21 -19 18 -36 22 -36 8z"/>
<path d="M2445 3800 c-3 -5 1 -10 10 -10 9 0 13 5 10 10 -3 6 -8 10 -10 10 -2
0 -7 -4 -10 -10z"/>
<path d="M1755 3790 c3 -5 26 -10 51 -10 24 0 44 5 44 10 0 6 -23 10 -51 10
-31 0 -48 -4 -44 -10z"/>
<path d="M1326 3781 c5 -6 32 -6 64 -2 l55 9 -64 1 c-40 1 -61 -3 -55 -8z"/>
<path d="M1861 3738 c-1 -16 4 -28 9 -28 12 0 12 8 0 35 -8 18 -9 17 -9 -7z"/>
<path d="M2280 3741 c0 -5 10 -11 22 -13 12 -2 28 -13 34 -25 13 -27 24 -21
17 8 -7 27 -73 53 -73 30z"/>
<path d="M2437 3729 c3 -10 12 -19 19 -19 20 0 17 13 -5 27 -16 10 -18 9 -14
-8z"/>
<path d="M4290 3699 c0 -5 5 -7 10 -4 6 3 10 8 10 11 0 2 -4 4 -10 4 -5 0 -10
-5 -10 -11z"/>
<path d="M2250 3689 c0 -5 5 -7 10 -4 6 3 10 8 10 11 0 2 -4 4 -10 4 -5 0 -10
-5 -10 -11z"/>
<path d="M2480 3689 c0 -5 5 -7 10 -4 6 3 10 8 10 11 0 2 -4 4 -10 4 -5 0 -10
-5 -10 -11z"/>
<path d="M2678 3684 c-16 -8 -28 -17 -28 -19 0 -12 30 -3 51 15 28 23 15 25
-23 4z"/>
<path d="M3790 3666 c0 -39 49 -42 50 -3 0 4 14 7 30 7 17 0 30 5 30 10 0 6
-25 10 -55 10 -51 0 -55 -2 -55 -24z"/>
<path d="M3298 3668 c-16 -14 -71 -225 -97 -378 -5 -25 -25 -107 -45 -182 -44
-169 -44 -170 -8 -162 15 4 36 13 47 20 11 8 39 14 62 14 38 0 45 3 55 28 6
15 12 54 14 87 3 42 1 53 -5 34 -4 -14 -14 -36 -21 -49 -11 -20 -10 -22 4 -17
9 4 16 2 16 -3 0 -10 -6 -12 -39 -14 -22 -2 -25 -24 -4 -29 13 -3 10 -5 -7 -6
-25 -1 -50 15 -50 31 0 4 11 8 25 8 24 0 25 2 19 35 -8 43 2 88 18 79 8 -5 9
-2 5 9 -3 10 -2 17 3 17 6 0 10 7 10 15 0 8 -7 15 -15 15 -11 0 -15 10 -14 33
1 23 3 26 6 10 5 -25 5 -25 27 -17 9 3 16 14 16 23 0 14 2 14 10 1 12 -20 24
-6 38 46 16 56 15 127 -2 188 -8 28 -19 78 -23 110 -8 62 -18 75 -45 54z"/>
<path d="M2768 3623 c6 -2 18 -2 25 0 6 3 1 5 -13 5 -14 0 -19 -2 -12 -5z"/>
<path d="M2565 3610 c3 -5 11 -10 16 -10 6 0 7 5 4 10 -3 6 -11 10 -16 10 -6
0 -7 -4 -4 -10z"/>
<path d="M2622 3598 c-8 -8 -9 -15 0 -25 14 -17 39 2 31 23 -6 17 -15 18 -31
2z"/>
<path d="M2741 3603 c0 -6 -4 -20 -7 -30 -5 -14 -4 -15 5 -7 7 7 11 20 8 30
-3 11 -5 14 -6 7z"/>
<path d="M3805 3590 c3 -5 8 -10 11 -10 2 0 4 5 4 10 0 6 -5 10 -11 10 -5 0
-7 -4 -4 -10z"/>
<path d="M2820 3568 c0 -8 -10 -23 -22 -32 l-23 -16 24 2 c31 4 50 33 33 50
-9 9 -12 9 -12 -4z"/>
<path d="M2436 3535 c-4 -10 2 -19 17 -25 12 -5 18 -9 13 -9 -6 -1 -1 -7 10
-15 22 -16 46 -7 50 19 1 9 0 14 -3 11 -4 -3 -12 -1 -20 6 -7 6 -16 8 -20 4
-3 -3 -14 1 -23 9 -16 14 -18 14 -24 0z"/>
<path d="M2665 3519 c-10 -15 3 -25 16 -12 7 7 7 13 1 17 -6 3 -14 1 -17 -5z"/>
<path d="M4422 3495 c0 -16 2 -22 5 -12 2 9 2 23 0 30 -3 6 -5 -1 -5 -18z"/>
<path d="M4365 3400 c-2 -3 -1 -24 2 -47 4 -31 11 -43 27 -47 35 -9 36 -8 36
43 0 47 -1 49 -30 53 -17 3 -33 2 -35 -2z"/>
<path d="M2842 3369 c-24 -30 -15 -50 10 -21 23 26 29 40 21 45 -5 2 -18 -8
-31 -24z"/>
<path d="M3817 3328 c-19 -50 -19 -54 -2 -37 9 9 15 25 13 35 -5 18 -5 18 -11
2z"/>
<path d="M3807 3234 c-9 -9 4 -35 14 -28 5 3 9 12 9 20 0 14 -12 19 -23 8z"/>
<path d="M2830 3140 c0 -5 -10 -10 -22 -10 -15 0 -19 -3 -12 -10 14 -14 44 -2
44 16 0 8 -2 14 -5 14 -3 0 -5 -4 -5 -10z"/>
<path d="M3 3060 c0 -25 2 -35 4 -22 2 12 2 32 0 45 -2 12 -4 2 -4 -23z"/>
<path d="M130 2971 c0 -33 -6 -44 -37 -70 -20 -17 -49 -33 -65 -36 -23 -5 -28
-12 -28 -36 0 -34 18 -38 43 -9 9 11 23 20 30 20 12 0 59 51 81 87 9 16 -3 83
-15 83 -5 0 -9 -18 -9 -39z"/>
<path d="M3106 2913 c3 -16 -2 -53 -11 -83 -59 -212 -57 -263 3 -89 53 152 62
167 97 151 14 -7 27 -17 29 -24 16 -53 19 -53 32 -3 7 27 12 51 10 52 -1 2
-33 5 -70 7 -37 3 -70 7 -74 10 -13 14 -21 4 -16 -21z"/>
<path d="M206 2797 c9 -85 -1 -92 -118 -91 -85 0 -88 0 -88 -23 0 -20 5 -23
43 -25 23 0 49 -1 57 0 8 1 38 3 67 4 l51 3 7 43 c8 51 -3 152 -16 152 -6 0
-7 -27 -3 -63z"/>
<path d="M3815 2663 c-17 -39 -18 -110 -2 -130 14 -19 27 -6 27 26 0 15 3 31
6 34 6 6 9 57 5 95 -2 24 -21 11 -36 -25z"/>
<path d="M145 2530 c4 -6 1 -18 -7 -27 -7 -10 -8 -14 -1 -10 6 4 13 2 15 -3 2
-7 11 -5 23 4 16 12 17 16 6 30 -15 17 -46 22 -36 6z"/>
<path d="M4157 2492 c3 -12 9 -25 14 -28 14 -8 11 10 -6 32 -13 18 -14 18 -8
-4z"/>
<path d="M90 2391 c0 -50 5 -93 10 -96 6 -3 10 4 10 17 0 13 3 56 6 96 6 62 4
72 -10 72 -14 0 -16 -14 -16 -89z"/>
<path d="M3821 2441 c-12 -21 -8 -41 9 -41 13 0 21 31 11 47 -7 14 -10 13 -20
-6z"/>
<path d="M4 2298 c10 -190 15 -239 30 -260 13 -18 14 -17 19 9 3 15 1 38 -4
51 -5 13 -9 69 -9 125 0 142 -9 207 -28 207 -13 0 -14 -18 -8 -132z"/>
<path d="M234 2335 c0 -49 1 -71 3 -48 2 23 2 64 0 90 -2 26 -3 8 -3 -42z"/>
<path d="M4225 2361 c-3 -5 -1 -12 5 -16 5 -3 10 1 10 9 0 18 -6 21 -15 7z"/>
<path d="M3327 2344 c-8 -8 1 -24 14 -24 5 0 9 7 9 15 0 15 -12 20 -23 9z"/>
<path d="M2889 2248 c-33 -60 -52 -84 -68 -86 -15 -2 -20 -9 -17 -20 2 -9 8
-55 12 -102 6 -78 21 -147 24 -110 0 8 7 68 14 133 13 112 15 119 47 152 19
19 40 35 47 35 8 0 10 9 6 28 -14 56 -20 53 -65 -30z"/>
<path d="M3390 2322 c0 -11 41 -34 48 -27 4 4 -2 13 -12 21 -22 15 -36 18 -36
6z"/>
<path d="M3827 2324 c-10 -10 -9 -54 2 -54 12 0 22 43 13 52 -5 5 -11 5 -15 2z"/>
<path d="M3004 2313 c-6 -5 -13 -18 -16 -29 -4 -17 -2 -20 12 -17 9 3 25 -3
34 -12 16 -16 18 -16 31 1 24 31 15 59 -20 62 -16 1 -35 -1 -41 -5z"/>
<path d="M4236 2298 c-20 -29 -21 -68 -1 -68 10 0 15 10 15 31 0 24 4 30 15
25 19 -7 20 8 1 23 -11 10 -17 7 -30 -11z"/>
<path d="M162 2249 c-13 -5 -35 -6 -48 -3 -27 7 -32 -7 -8 -27 24 -20 57 -18
77 4 30 35 22 44 -21 26z"/>
<path d="M3095 2250 c-18 -8 -17 -9 8 -9 16 -1 26 3 22 9 -3 6 -7 10 -8 9 -1
0 -11 -4 -22 -9z"/>
<path d="M232 2215 c0 -16 2 -22 5 -12 2 9 2 23 0 30 -3 6 -5 -1 -5 -18z"/>
<path d="M232 2133 c-1 -29 -10 -51 -29 -73 -23 -27 -32 -31 -65 -28 -30 3
-38 0 -36 -12 8 -38 123 -10 133 33 4 13 5 46 2 73 -3 48 -3 48 -5 7z"/>
<path d="M74 2115 c-9 -23 4 -47 23 -43 11 2 19 14 21 31 3 22 -1 27 -18 27
-11 0 -23 -7 -26 -15z"/>
<path d="M3760 1980 c0 -5 5 -10 10 -10 6 0 10 5 10 10 0 6 -4 10 -10 10 -5 0
-10 -4 -10 -10z"/>
<path d="M23 1943 c-25 -5 -32 -33 -9 -33 25 0 46 12 46 26 0 8 -3 13 -7 13
-5 -1 -18 -4 -30 -6z"/>
<path d="M170 1761 c-6 -13 -21 -21 -35 -21 -25 0 -31 -13 -19 -44 8 -22 24
-20 24 2 0 25 19 42 47 42 26 0 30 12 9 29 -12 10 -17 8 -26 -8z"/>
<path d="M231 1691 c-1 -8 -8 -22 -17 -32 -17 -19 -12 -39 10 -39 18 0 27 36
16 63 -5 12 -9 16 -9 8z"/>
<path d="M110 1650 c0 -5 5 -10 11 -10 5 0 7 5 4 10 -3 6 -8 10 -11 10 -2 0
-4 -4 -4 -10z"/>
<path d="M231 1334 c-12 -27 -11 -28 4 -12 10 9 16 21 13 28 -2 7 -10 -1 -17
-16z"/>
<path d="M120 1290 c10 -19 59 -50 78 -50 5 0 10 12 10 26 0 21 -4 25 -23 20
-12 -3 -30 1 -41 9 -27 20 -37 18 -24 -5z"/>
<path d="M4270 852 c0 -12 9 -26 19 -32 30 -16 33 4 6 30 -25 23 -25 23 -25 2z"/>
</g>
</svg>
